<svg width="257" height="257" viewBox="0 0 257 257" fill="none" xmlns="http://www.w3.org/2000/svg">
<path d="M111.535 119.596C114.673 117.043 117.688 114.333 120.964 111.965C129.689 105.663 138.346 99.2238 147.4 93.4096C151.793 90.59 156.878 88.617 161.897 87.0063C169.111 84.691 174.312 87.6948 176.58 94.927C178.205 100.086 178.039 105.357 176.621 110.519C173.825 120.687 168.513 129.578 161.962 137.773C160.917 139.078 159.495 140.132 158.105 141.107C152.732 144.856 150.566 144.759 145.1 140.54C144.308 141.783 143.548 143.028 142.735 144.24C138.224 150.953 134.773 151.782 127.787 147.695C126.141 151.601 124.727 155.595 122.796 159.332C121.447 162.066 119.663 164.565 117.513 166.738C114.522 169.613 110.763 168.787 109.198 164.954C108.101 162.103 107.417 159.112 107.166 156.071C106.56 149.99 106.333 143.877 105.91 137.781C105.853 136.976 105.577 136.198 105.179 134.386C102.614 136.754 100.489 138.554 98.5545 140.531C90.5401 148.722 91.9583 145.395 91.9869 156.421C91.9869 161.503 92.6005 166.581 92.8566 171.662C92.9664 173.801 92.8769 175.952 92.8769 178.106L91.8244 178.15C90.7392 169.693 89.65 161.205 88.4105 151.508C85.59 154.834 83.4198 157.166 81.5017 159.687C66.6068 179.366 53.6994 200.144 45.8924 223.714C44.8988 226.6 44.1485 229.563 43.649 232.572C43.1369 235.955 44.3318 237.003 47.7415 236.273C49.5582 235.9 51.2936 235.065 53.0005 234.284C66.2126 228.328 77.8196 219.786 89.5769 211.537C118.936 190.834 148.733 170.753 180.112 153.139C191.869 146.543 204.521 141.513 216.786 135.824C218.104 135.203 219.611 135.104 221 135.546C219.375 136.625 217.802 137.745 216.164 138.767C182.315 160.153 148.359 181.376 114.652 202.98C100.395 212.115 86.7565 222.192 72.6461 231.57C66.9402 235.335 60.9636 238.681 54.7642 241.58C51.3426 243.105 47.6442 243.928 43.8929 243.995C38.7193 244.137 35.6672 241.078 36.0289 236.014C36.34 231.29 37.297 226.627 38.8738 222.156C48.9323 194.462 64.6845 170.092 83.8222 147.755C86.5086 144.618 88.1463 141.643 87.805 136.971C86.8255 123.599 86.8011 110.153 86.3662 96.7396C86.1387 89.6077 85.8258 82.4843 85.5535 75.357C85.5087 74.0239 85.5535 72.691 85.5535 70.3918C88.626 74.0401 88.3984 77.6685 88.8047 80.97C91.0318 99.0226 92.3892 117.131 91.9137 135.332C91.9137 136.001 92.0113 136.669 92.1413 138.272C96.3475 134.156 100.135 130.597 103.699 126.828C104.333 126.163 104.195 124.637 104.155 123.518C103.793 114.014 102.814 104.499 103.102 95.0203C103.508 81.6308 104.866 68.2736 105.76 54.8964C106.293 46.9354 106.707 38.9664 107.186 30.9972C107.341 28.3918 107.528 25.7865 107.772 22.0456C99.237 33.3208 91.6048 43.6293 83.6962 53.7286C76.576 62.8174 59.8686 78.566 55.8453 80.1967C56.089 79.3517 56.089 78.6508 56.4386 78.2399C71.8933 60.2292 86.1606 41.2503 99.1517 21.4214C100.747 19.0034 102.627 16.7824 104.752 14.8053C108.004 11.753 111.482 12.6349 112.413 16.9678C113.245 20.9521 113.569 25.0243 113.376 29.0886C112.97 38.4067 112.258 47.7247 111.369 57.0146C109.971 71.5717 109.198 86.1489 109.507 100.771C109.637 106.863 110.109 112.947 110.421 119.032L111.535 119.596ZM133.818 143.543C137.679 141.405 138.853 138.393 139.914 135.373C140.869 132.65 141.479 129.812 142.467 127.101C143.064 125.455 144.361 123.804 146.278 124.617C147.372 125.081 148.237 126.771 148.599 128.076C149.221 130.344 149.155 132.795 149.786 135.063C150.457 137.479 151.875 137.825 154.033 136.368C154.869 135.779 155.641 135.104 156.333 134.354C163.1 127.305 167.989 118.697 170.557 109.307C171.573 105.61 172.26 101.733 170.862 97.7944C169.237 93.2562 166.907 91.7542 162.23 93.3048C159.126 94.2955 156.131 95.5931 153.289 97.1783C139.138 105.264 126.182 114.997 113.9 125.644C112.21 127.11 111.413 128.741 111.616 130.984C112.372 139.44 113.018 147.872 113.787 156.312C113.896 157.52 114.465 158.672 115.006 160.488C116.225 158.145 117.277 156.57 117.911 154.85C120.204 148.633 122.353 142.368 124.564 136.122C125.072 134.684 125.377 133.09 126.21 131.877C126.775 131.072 128.198 130.323 129.137 130.431C130.075 130.54 131.274 131.576 131.672 132.498C132.184 133.681 131.9 135.176 132.156 136.5C132.595 138.711 133.188 140.91 133.818 143.543Z" fill="black"/>
</svg>
