<svg width="100" height="100" viewBox="0 0 100 100" fill="none" xmlns="http://www.w3.org/2000/svg">
<rect width="100" height="100" rx="50" fill="#242120"/>
<path fill-rule="evenodd" clip-rule="evenodd" d="M73.7993 25.9801C73.2914 25.0643 72.1319 24.7308 71.2097 25.2353C70.2875 25.7397 69.9517 26.8911 70.4596 27.807C74.1097 34.3877 76.1872 41.9501 76.1872 50C76.1872 58.0499 74.1097 65.6123 70.4596 72.193C69.9517 73.1089 70.2875 74.2603 71.2097 74.7647C72.1319 75.2692 73.2914 74.9357 73.7993 74.0199C77.7519 66.8938 80 58.7048 80 50C80 41.2952 77.7519 33.1062 73.7993 25.9801ZM68.1874 31.6938C67.731 30.7516 66.5918 30.3552 65.643 30.8084C64.6942 31.2616 64.295 32.3929 64.7514 33.3352C67.1927 38.3755 68.5615 44.0263 68.5615 50C68.5615 55.9737 67.1927 61.6245 64.7514 66.6648C64.295 67.6071 64.6942 68.7384 65.643 69.1916C66.5918 69.6448 67.731 69.2484 68.1874 68.3061C70.8714 62.7648 72.3744 56.554 72.3744 50C72.3744 43.446 70.8714 37.2352 68.1874 31.6938ZM62.4505 37.597C62.0742 36.6204 60.972 36.1318 59.9887 36.5055C59.0053 36.8792 58.5133 37.9738 58.8896 38.9503C60.211 42.3792 60.9359 46.1033 60.9359 50C60.9359 53.8967 60.211 57.6208 58.8896 61.0497C58.5133 62.0262 59.0053 63.1208 59.9887 63.4945C60.972 63.8682 62.0742 63.3796 62.4505 62.4031C63.9359 58.5489 64.7487 54.3665 64.7487 50C64.7487 45.6335 63.9359 41.4511 62.4505 37.597ZM22.5419 39.4279H35.3034C35.9249 39.4279 36.5248 39.2018 36.9898 38.7924L46.2743 30.6168C47.9142 29.1728 50.5026 30.3289 50.5026 32.5055V66.7187C50.5026 68.8953 47.9142 70.0515 46.2743 68.6074L36.9898 60.4318C36.5248 60.0224 35.9249 59.7963 35.3034 59.7963H22.5419C21.138 59.7963 20 58.6661 20 57.272V41.9522C20 40.5581 21.138 39.4279 22.5419 39.4279Z" fill="white"/>
<path fill-rule="evenodd" clip-rule="evenodd" d="M78 22.6021C80.1362 24.7383 80.1362 28.2017 78 30.3379L30.338 78.0004C28.2018 80.1366 24.7384 80.1366 22.6022 78.0004C20.4659 75.8642 20.4659 72.4008 22.6022 70.2646L70.2641 22.6021C72.4003 20.4659 75.8638 20.4659 78 22.6021Z" fill="white" stroke="#242120" stroke-width="4" stroke-linecap="round"/>
</svg>
